<?xml version="1.0" encoding="utf-8"?>
<!-- Generator: Adobe Illustrator 24.1.2, SVG Export Plug-In . SVG Version: 6.00 Build 0)  -->
<svg version="1.1" id="Layer_1" xmlns="http://www.w3.org/2000/svg" xmlns:xlink="http://www.w3.org/1999/xlink" x="0px" y="0px"
	 viewBox="0 0 400 400" style="enable-background:new 0 0 400 400;" xml:space="preserve">
<g>
	<path d="M189.31,394c-41.79,0-74.61-12.38-98.45-37.13c-23.85-24.75-35.77-59.05-35.77-102.88c0-42.7,8.46-83.63,25.38-122.81
		C97.38,92,119.81,61.51,147.75,39.7S206.45,7,240.07,7c34.75,0,60.86,7.55,78.35,22.65c17.49,15.11,26.23,36.17,26.23,63.19
		c0,40.88-18.85,72.96-56.55,96.24c-37.7,23.28-91.64,34.92-161.82,34.92h-11.24l-1.36,27.25c0,29.75,6.98,52.97,20.95,69.67
		c13.97,16.69,35.6,25.04,64.9,25.04c14.31,0,29.01-2.04,44.12-6.13c15.1-4.09,33.9-11.58,56.38-22.48v49.74
		c-21.35,10-40.2,16.98-56.55,20.95C227.12,392.01,209.07,394,189.31,394z M236.66,55.72c-23.39,0-45.37,10.68-65.92,32.02
		c-20.56,21.35-36.28,50.99-47.18,88.91h4.09c51.78,0,91.47-6.75,119.06-20.27c27.59-13.51,41.39-33.1,41.39-58.77
		c0-12.03-4.15-22.03-12.44-29.98C267.38,59.69,254.38,55.72,236.66,55.72z"/>
</g>
</svg>
